<mxfile host="app.diagrams.net" agent="Mozilla/5.0 (Windows NT 10.0; Win64; x64) AppleWebKit/537.36 (KHTML, like Gecko) Chrome/135.0.0.0 Safari/537.36 OPR/120.0.0.0" version="28.0.7">
  <diagram name="Page-1" id="OWPrARBi7gsbkk72a_-a">
    <mxGraphModel dx="832" dy="480" grid="1" gridSize="10" guides="1" tooltips="1" connect="1" arrows="1" fold="1" page="1" pageScale="1" pageWidth="850" pageHeight="1100" background="light-dark(#FFFFFF,transparent)" math="0" shadow="0">
      <root>
        <mxCell id="0" />
        <mxCell id="1" parent="0" />
        <mxCell id="nWkBywveSg0u-xXf2ynt-7" style="edgeStyle=orthogonalEdgeStyle;rounded=0;orthogonalLoop=1;jettySize=auto;html=1;entryX=0.5;entryY=0;entryDx=0;entryDy=0;" edge="1" parent="1" source="nWkBywveSg0u-xXf2ynt-3" target="nWkBywveSg0u-xXf2ynt-5">
          <mxGeometry relative="1" as="geometry" />
        </mxCell>
        <mxCell id="nWkBywveSg0u-xXf2ynt-3" value="&lt;font&gt;Start&lt;/font&gt;" style="rounded=1;whiteSpace=wrap;html=1;fillColor=light-dark(#FFFFFF,#FFFFFF);strokeColor=light-dark(#36393D,#000000);arcSize=50;fontColor=light-dark(#000000,#000000);" vertex="1" parent="1">
          <mxGeometry x="368" y="40" width="115" height="50" as="geometry" />
        </mxCell>
        <mxCell id="nWkBywveSg0u-xXf2ynt-8" style="edgeStyle=orthogonalEdgeStyle;rounded=0;orthogonalLoop=1;jettySize=auto;html=1;" edge="1" parent="1" source="nWkBywveSg0u-xXf2ynt-5" target="nWkBywveSg0u-xXf2ynt-6">
          <mxGeometry relative="1" as="geometry" />
        </mxCell>
        <mxCell id="nWkBywveSg0u-xXf2ynt-5" value="int count,sum;" style="shape=internalStorage;whiteSpace=wrap;html=1;backgroundOutline=1;fillColor=light-dark(#FFFFFF,#FFFFFF);fontColor=light-dark(#000000,#000000);strokeColor=light-dark(#000000,#000000);dx=15;dy=10;" vertex="1" parent="1">
          <mxGeometry x="365" y="120" width="120" height="40" as="geometry" />
        </mxCell>
        <mxCell id="nWkBywveSg0u-xXf2ynt-10" style="edgeStyle=orthogonalEdgeStyle;rounded=0;orthogonalLoop=1;jettySize=auto;html=1;entryX=0.5;entryY=0;entryDx=0;entryDy=0;" edge="1" parent="1" source="nWkBywveSg0u-xXf2ynt-6" target="nWkBywveSg0u-xXf2ynt-9">
          <mxGeometry relative="1" as="geometry" />
        </mxCell>
        <mxCell id="nWkBywveSg0u-xXf2ynt-6" value="float avg" style="shape=internalStorage;whiteSpace=wrap;html=1;backgroundOutline=1;fillColor=light-dark(#FFFFFF,#FFFFFF);fontColor=light-dark(#000000,#000000);strokeColor=light-dark(#000000,#000000);dx=15;dy=10;" vertex="1" parent="1">
          <mxGeometry x="365.5" y="190" width="120" height="40" as="geometry" />
        </mxCell>
        <mxCell id="nWkBywveSg0u-xXf2ynt-13" style="edgeStyle=orthogonalEdgeStyle;rounded=0;orthogonalLoop=1;jettySize=auto;html=1;" edge="1" parent="1" source="nWkBywveSg0u-xXf2ynt-9" target="nWkBywveSg0u-xXf2ynt-12">
          <mxGeometry relative="1" as="geometry" />
        </mxCell>
        <mxCell id="nWkBywveSg0u-xXf2ynt-9" value="&lt;font style=&quot;color: light-dark(rgb(0, 0, 0), rgb(0, 0, 0));&quot;&gt;count = 5;&lt;/font&gt;" style="rounded=0;whiteSpace=wrap;html=1;fillColor=light-dark(#FFFFFF,#FFFFFF);strokeColor=light-dark(#000000,#000000);" vertex="1" parent="1">
          <mxGeometry x="365" y="260" width="120" height="40" as="geometry" />
        </mxCell>
        <mxCell id="nWkBywveSg0u-xXf2ynt-15" style="edgeStyle=orthogonalEdgeStyle;rounded=0;orthogonalLoop=1;jettySize=auto;html=1;entryX=0.5;entryY=0;entryDx=0;entryDy=0;" edge="1" parent="1" source="nWkBywveSg0u-xXf2ynt-12" target="nWkBywveSg0u-xXf2ynt-14">
          <mxGeometry relative="1" as="geometry" />
        </mxCell>
        <mxCell id="nWkBywveSg0u-xXf2ynt-12" value="int number[count];" style="shape=internalStorage;whiteSpace=wrap;html=1;backgroundOutline=1;fillColor=light-dark(#FFFFFF,#FFFFFF);fontColor=light-dark(#000000,#000000);strokeColor=light-dark(#000000,#000000);dx=15;dy=10;" vertex="1" parent="1">
          <mxGeometry x="360.5" y="330" width="129.5" height="40" as="geometry" />
        </mxCell>
        <mxCell id="nWkBywveSg0u-xXf2ynt-19" value="" style="edgeStyle=orthogonalEdgeStyle;rounded=0;orthogonalLoop=1;jettySize=auto;html=1;entryX=0;entryY=0.5;entryDx=0;entryDy=0;entryPerimeter=0;" edge="1" parent="1" source="nWkBywveSg0u-xXf2ynt-14" target="nWkBywveSg0u-xXf2ynt-41">
          <mxGeometry relative="1" as="geometry">
            <mxPoint x="540" y="420" as="targetPoint" />
            <Array as="points" />
          </mxGeometry>
        </mxCell>
        <mxCell id="nWkBywveSg0u-xXf2ynt-37" value="True" style="edgeLabel;html=1;align=center;verticalAlign=middle;resizable=0;points=[];" vertex="1" connectable="0" parent="nWkBywveSg0u-xXf2ynt-19">
          <mxGeometry x="-0.2611" y="1" relative="1" as="geometry">
            <mxPoint y="-9" as="offset" />
          </mxGeometry>
        </mxCell>
        <mxCell id="nWkBywveSg0u-xXf2ynt-23" style="edgeStyle=orthogonalEdgeStyle;rounded=0;orthogonalLoop=1;jettySize=auto;html=1;entryX=0.5;entryY=0;entryDx=0;entryDy=0;" edge="1" parent="1" source="nWkBywveSg0u-xXf2ynt-14" target="nWkBywveSg0u-xXf2ynt-24">
          <mxGeometry relative="1" as="geometry">
            <mxPoint x="425" y="560" as="targetPoint" />
          </mxGeometry>
        </mxCell>
        <mxCell id="nWkBywveSg0u-xXf2ynt-38" value="False" style="edgeLabel;html=1;align=center;verticalAlign=middle;resizable=0;points=[];" vertex="1" connectable="0" parent="nWkBywveSg0u-xXf2ynt-23">
          <mxGeometry x="-0.2222" y="-1" relative="1" as="geometry">
            <mxPoint x="-14" y="-27" as="offset" />
          </mxGeometry>
        </mxCell>
        <mxCell id="nWkBywveSg0u-xXf2ynt-14" value="for(int i=0;i&amp;lt;count;i++)" style="shape=hexagon;perimeter=hexagonPerimeter2;whiteSpace=wrap;html=1;fixedSize=1;size=20;fillColor=light-dark(#FFFFFF,#FFFFFF);strokeColor=light-dark(#000000,#000000);fontColor=light-dark(#000000,#000000);" vertex="1" parent="1">
          <mxGeometry x="350" y="400" width="150" height="40" as="geometry" />
        </mxCell>
        <mxCell id="nWkBywveSg0u-xXf2ynt-32" value="" style="edgeStyle=orthogonalEdgeStyle;rounded=0;orthogonalLoop=1;jettySize=auto;html=1;" edge="1" parent="1" source="nWkBywveSg0u-xXf2ynt-24" target="nWkBywveSg0u-xXf2ynt-30">
          <mxGeometry relative="1" as="geometry" />
        </mxCell>
        <mxCell id="nWkBywveSg0u-xXf2ynt-39" value="True" style="edgeLabel;html=1;align=center;verticalAlign=middle;resizable=0;points=[];" vertex="1" connectable="0" parent="nWkBywveSg0u-xXf2ynt-32">
          <mxGeometry x="0.0096" y="1" relative="1" as="geometry">
            <mxPoint y="-9" as="offset" />
          </mxGeometry>
        </mxCell>
        <mxCell id="nWkBywveSg0u-xXf2ynt-35" value="" style="edgeStyle=orthogonalEdgeStyle;rounded=0;orthogonalLoop=1;jettySize=auto;html=1;" edge="1" parent="1" source="nWkBywveSg0u-xXf2ynt-24" target="nWkBywveSg0u-xXf2ynt-34">
          <mxGeometry relative="1" as="geometry" />
        </mxCell>
        <mxCell id="nWkBywveSg0u-xXf2ynt-40" value="False" style="edgeLabel;html=1;align=center;verticalAlign=middle;resizable=0;points=[];" vertex="1" connectable="0" parent="nWkBywveSg0u-xXf2ynt-35">
          <mxGeometry x="-0.1474" y="1" relative="1" as="geometry">
            <mxPoint x="-16" y="-10" as="offset" />
          </mxGeometry>
        </mxCell>
        <mxCell id="nWkBywveSg0u-xXf2ynt-24" value="for(int i=0;i&amp;lt;count;i++)" style="shape=hexagon;perimeter=hexagonPerimeter2;whiteSpace=wrap;html=1;fixedSize=1;size=20;fillColor=light-dark(#FFFFFF,#FFFFFF);strokeColor=light-dark(#000000,#000000);fontColor=light-dark(#000000,#000000);" vertex="1" parent="1">
          <mxGeometry x="350" y="560" width="150" height="40" as="geometry" />
        </mxCell>
        <mxCell id="nWkBywveSg0u-xXf2ynt-33" style="edgeStyle=orthogonalEdgeStyle;rounded=0;orthogonalLoop=1;jettySize=auto;html=1;entryX=0.625;entryY=1;entryDx=0;entryDy=0;" edge="1" parent="1" source="nWkBywveSg0u-xXf2ynt-30" target="nWkBywveSg0u-xXf2ynt-24">
          <mxGeometry relative="1" as="geometry">
            <Array as="points">
              <mxPoint x="620" y="620" />
              <mxPoint x="444" y="620" />
            </Array>
          </mxGeometry>
        </mxCell>
        <mxCell id="nWkBywveSg0u-xXf2ynt-30" value="sum+=number[i];" style="whiteSpace=wrap;html=1;fillColor=light-dark(#FFFFFF,#FFFFFF);strokeColor=light-dark(#000000,#000000);fontColor=light-dark(#000000,#000000);" vertex="1" parent="1">
          <mxGeometry x="550" y="560" width="130" height="40" as="geometry" />
        </mxCell>
        <mxCell id="nWkBywveSg0u-xXf2ynt-47" style="edgeStyle=orthogonalEdgeStyle;rounded=0;orthogonalLoop=1;jettySize=auto;html=1;exitX=0.5;exitY=1;exitDx=0;exitDy=0;" edge="1" parent="1" source="nWkBywveSg0u-xXf2ynt-34" target="nWkBywveSg0u-xXf2ynt-46">
          <mxGeometry relative="1" as="geometry" />
        </mxCell>
        <mxCell id="nWkBywveSg0u-xXf2ynt-34" value="avg =(float)sum/count;" style="whiteSpace=wrap;html=1;fillColor=light-dark(#FFFFFF,#FFFFFF);strokeColor=light-dark(#000000,#000000);fontColor=light-dark(#000000,#000000);" vertex="1" parent="1">
          <mxGeometry x="360" y="670" width="130" height="40" as="geometry" />
        </mxCell>
        <mxCell id="nWkBywveSg0u-xXf2ynt-45" style="edgeStyle=orthogonalEdgeStyle;rounded=0;orthogonalLoop=1;jettySize=auto;html=1;entryX=0.5;entryY=0;entryDx=0;entryDy=0;" edge="1" parent="1" source="nWkBywveSg0u-xXf2ynt-41" target="nWkBywveSg0u-xXf2ynt-43">
          <mxGeometry relative="1" as="geometry" />
        </mxCell>
        <mxCell id="nWkBywveSg0u-xXf2ynt-41" value="printf(&quot;Enter number %d&quot;,i)" style="shape=display;whiteSpace=wrap;html=1;fillColor=light-dark(#FFFFFF,#FFFFFF);strokeColor=light-dark(#000000,#000000);fontColor=light-dark(#000000,#000000);size=0.125;" vertex="1" parent="1">
          <mxGeometry x="540" y="400" width="160" height="40" as="geometry" />
        </mxCell>
        <mxCell id="nWkBywveSg0u-xXf2ynt-44" style="edgeStyle=orthogonalEdgeStyle;rounded=0;orthogonalLoop=1;jettySize=auto;html=1;entryX=0.625;entryY=1;entryDx=0;entryDy=0;" edge="1" parent="1" source="nWkBywveSg0u-xXf2ynt-43" target="nWkBywveSg0u-xXf2ynt-14">
          <mxGeometry relative="1" as="geometry" />
        </mxCell>
        <mxCell id="nWkBywveSg0u-xXf2ynt-43" value="scanf(&quot;%d&quot;,number[i]);" style="shape=manualInput;whiteSpace=wrap;html=1;fontColor=light-dark(#000000,#000000);fillColor=light-dark(#FFFFFF,#FFFFFF);strokeColor=light-dark(#000000,#000000);size=13;" vertex="1" parent="1">
          <mxGeometry x="540" y="480" width="160" height="50" as="geometry" />
        </mxCell>
        <mxCell id="nWkBywveSg0u-xXf2ynt-49" value="" style="edgeStyle=orthogonalEdgeStyle;rounded=0;orthogonalLoop=1;jettySize=auto;html=1;" edge="1" parent="1" source="nWkBywveSg0u-xXf2ynt-46" target="nWkBywveSg0u-xXf2ynt-48">
          <mxGeometry relative="1" as="geometry" />
        </mxCell>
        <mxCell id="nWkBywveSg0u-xXf2ynt-46" value="printf(&quot;Average of number = %d&quot;,avg)" style="shape=display;whiteSpace=wrap;html=1;fillColor=light-dark(#FFFFFF,#FFFFFF);strokeColor=light-dark(#000000,#000000);fontColor=light-dark(#000000,#000000);size=0.08695652173913043;" vertex="1" parent="1">
          <mxGeometry x="310" y="740" width="230" height="40" as="geometry" />
        </mxCell>
        <mxCell id="nWkBywveSg0u-xXf2ynt-48" value="&lt;font&gt;End&lt;/font&gt;" style="rounded=1;whiteSpace=wrap;html=1;fillColor=light-dark(#FFFFFF,#FFFFFF);strokeColor=light-dark(#36393D,#000000);arcSize=50;fontColor=light-dark(#000000,#000000);" vertex="1" parent="1">
          <mxGeometry x="368" y="810" width="115" height="50" as="geometry" />
        </mxCell>
      </root>
    </mxGraphModel>
  </diagram>
</mxfile>
